<?xml version="1.0" encoding="UTF-8" standalone="no"?>
<!DOCTYPE svg PUBLIC "-//W3C//DTD SVG 1.1//EN"
 "http://www.w3.org/Graphics/SVG/1.1/DTD/svg11.dtd">
<!-- Generated by graphviz version 2.47.0 (20210316.0004)
 -->
<!-- Title: dependencies Pages: 1 -->
<svg width="803pt" height="211pt"
 viewBox="0.00 0.00 803.00 211.00" xmlns="http://www.w3.org/2000/svg" xmlns:xlink="http://www.w3.org/1999/xlink">
<g id="graph0" class="graph" transform="scale(1 1) rotate(0) translate(4 207)">
<title>dependencies</title>
<polygon fill="white" stroke="transparent" points="-4,4 -4,-207 799,-207 799,4 -4,4"/>
<text text-anchor="start" x="376.51" y="-42.4" font-family="Times-12" font-weight="bold" font-size="14.00">Legend</text>
<polygon fill="#ffffb3" stroke="transparent" points="163.5,-10 163.5,-30 183.5,-30 183.5,-10 163.5,-10"/>
<text text-anchor="start" x="187.13" y="-15.4" font-family="Times-12" font-size="14.00"> &#160;Declarations</text>
<polygon fill="#8dd3c7" stroke="transparent" points="276.5,-10 276.5,-30 296.5,-30 296.5,-10 276.5,-10"/>
<text text-anchor="start" x="300.23" y="-15.4" font-family="Times-12" font-size="14.00"> &#160;Module</text>
<polygon fill="#80b1d3" stroke="transparent" points="362.5,-10 362.5,-30 382.5,-30 382.5,-10 362.5,-10"/>
<text text-anchor="start" x="386.28" y="-15.4" font-family="Times-12" font-size="14.00"> &#160;Bootstrap</text>
<polygon fill="#fdb462" stroke="transparent" points="459.5,-10 459.5,-30 479.5,-30 479.5,-10 459.5,-10"/>
<text text-anchor="start" x="483.17" y="-15.4" font-family="Times-12" font-size="14.00"> &#160;Providers</text>
<polygon fill="#fb8072" stroke="transparent" points="555.5,-10 555.5,-30 575.5,-30 575.5,-10 555.5,-10"/>
<text text-anchor="start" x="579.23" y="-15.4" font-family="Times-12" font-size="14.00"> &#160;Exports</text>
<g id="clust1" class="cluster">
<title>cluster_AuthModule</title>
<polygon fill="none" stroke="black" stroke-dasharray="1,5" points="8,-70 8,-195 787,-195 787,-70 8,-70"/>
</g>
<g id="clust6" class="cluster">
<title>cluster_AuthModule_providers</title>
<polygon fill="none" stroke="black" points="365,-78 365,-130 779,-130 779,-78 365,-78"/>
</g>
<g id="clust3" class="cluster">
<title>cluster_AuthModule_imports</title>
<polygon fill="none" stroke="black" points="16,-78 16,-130 357,-130 357,-78 16,-78"/>
</g>
<!-- DatabaseModule -->
<g id="node1" class="node">
<title>DatabaseModule</title>
<polygon fill="#8dd3c7" stroke="black" points="349.35,-122 346.35,-126 325.35,-126 322.35,-122 238.65,-122 238.65,-86 349.35,-86 349.35,-122"/>
<text text-anchor="middle" x="294" y="-99.8" font-family="Times,serif" font-size="14.00">DatabaseModule</text>
</g>
<!-- AuthModule -->
<g id="node4" class="node">
<title>AuthModule</title>
<polygon fill="#8dd3c7" stroke="black" points="409.55,-187 406.55,-191 385.55,-191 382.55,-187 322.45,-187 322.45,-151 409.55,-151 409.55,-187"/>
<text text-anchor="middle" x="366" y="-164.8" font-family="Times,serif" font-size="14.00">AuthModule</text>
</g>
<!-- DatabaseModule&#45;&gt;AuthModule -->
<g id="edge1" class="edge">
<title>DatabaseModule&#45;&gt;AuthModule</title>
<path fill="none" stroke="black" d="M335.83,-122.11C335.83,-122.11 335.83,-140.99 335.83,-140.99"/>
<polygon fill="black" stroke="black" points="332.33,-140.99 335.83,-150.99 339.33,-140.99 332.33,-140.99"/>
</g>
<!-- RmqModule -->
<g id="node2" class="node">
<title>RmqModule</title>
<polygon fill="#8dd3c7" stroke="black" points="220.28,-122 217.28,-126 196.28,-126 193.28,-122 133.72,-122 133.72,-86 220.28,-86 220.28,-122"/>
<text text-anchor="middle" x="177" y="-99.8" font-family="Times,serif" font-size="14.00">RmqModule</text>
</g>
<!-- RmqModule&#45;&gt;AuthModule -->
<g id="edge2" class="edge">
<title>RmqModule&#45;&gt;AuthModule</title>
<path fill="none" stroke="black" d="M177,-122.02C177,-139.37 177,-163 177,-163 177,-163 312.16,-163 312.16,-163"/>
<polygon fill="black" stroke="black" points="312.16,-166.5 322.16,-163 312.16,-159.5 312.16,-166.5"/>
</g>
<!-- UsersModule -->
<g id="node3" class="node">
<title>UsersModule</title>
<polygon fill="#8dd3c7" stroke="black" points="115.92,-122 112.92,-126 91.92,-126 88.92,-122 24.08,-122 24.08,-86 115.92,-86 115.92,-122"/>
<text text-anchor="middle" x="70" y="-99.8" font-family="Times,serif" font-size="14.00">UsersModule</text>
</g>
<!-- UsersModule&#45;&gt;AuthModule -->
<g id="edge3" class="edge">
<title>UsersModule&#45;&gt;AuthModule</title>
<path fill="none" stroke="black" d="M70,-122.28C70,-143.32 70,-175 70,-175 70,-175 312.32,-175 312.32,-175"/>
<polygon fill="black" stroke="black" points="312.32,-178.5 322.32,-175 312.32,-171.5 312.32,-178.5"/>
</g>
<!-- AuthService -->
<g id="node5" class="node">
<title>AuthService</title>
<ellipse fill="#fdb462" stroke="black" cx="712" cy="-104" rx="59.11" ry="18"/>
<text text-anchor="middle" x="712" y="-99.8" font-family="Times,serif" font-size="14.00">AuthService</text>
</g>
<!-- AuthService&#45;&gt;AuthModule -->
<g id="edge4" class="edge">
<title>AuthService&#45;&gt;AuthModule</title>
<path fill="none" stroke="black" d="M712,-122.28C712,-143.32 712,-175 712,-175 712,-175 419.82,-175 419.82,-175"/>
<polygon fill="black" stroke="black" points="419.82,-171.5 409.82,-175 419.82,-178.5 419.82,-171.5"/>
</g>
<!-- JwtStrategy -->
<g id="node6" class="node">
<title>JwtStrategy</title>
<ellipse fill="#fdb462" stroke="black" cx="578" cy="-104" rx="56.76" ry="18"/>
<text text-anchor="middle" x="578" y="-99.8" font-family="Times,serif" font-size="14.00">JwtStrategy</text>
</g>
<!-- JwtStrategy&#45;&gt;AuthModule -->
<g id="edge5" class="edge">
<title>JwtStrategy&#45;&gt;AuthModule</title>
<path fill="none" stroke="black" d="M578,-122.02C578,-139.37 578,-163 578,-163 578,-163 419.67,-163 419.67,-163"/>
<polygon fill="black" stroke="black" points="419.67,-159.5 409.67,-163 419.67,-166.5 419.67,-159.5"/>
</g>
<!-- LocalStrategy -->
<g id="node7" class="node">
<title>LocalStrategy</title>
<ellipse fill="#fdb462" stroke="black" cx="438" cy="-104" rx="65.41" ry="18"/>
<text text-anchor="middle" x="438" y="-99.8" font-family="Times,serif" font-size="14.00">LocalStrategy</text>
</g>
<!-- LocalStrategy&#45;&gt;AuthModule -->
<g id="edge6" class="edge">
<title>LocalStrategy&#45;&gt;AuthModule</title>
<path fill="none" stroke="black" d="M391.29,-116.84C391.29,-116.84 391.29,-140.52 391.29,-140.52"/>
<polygon fill="black" stroke="black" points="387.79,-140.52 391.29,-150.52 394.79,-140.52 387.79,-140.52"/>
</g>
</g>
</svg>
