<?xml version="1.0" encoding="UTF-8" standalone="no"?>
<!DOCTYPE svg PUBLIC "-//W3C//DTD SVG 1.1//EN"
 "http://www.w3.org/Graphics/SVG/1.1/DTD/svg11.dtd">
<!-- Generated by graphviz version 2.47.0 (20210316.0004)
 -->
<!-- Title: dependencies Pages: 1 -->
<svg width="711pt" height="211pt"
 viewBox="0.00 0.00 711.00 211.00" xmlns="http://www.w3.org/2000/svg" xmlns:xlink="http://www.w3.org/1999/xlink">
<g id="graph0" class="graph" transform="scale(1 1) rotate(0) translate(4 207)">
<title>dependencies</title>
<polygon fill="white" stroke="transparent" points="-4,4 -4,-207 707,-207 707,4 -4,4"/>
<text text-anchor="start" x="330.51" y="-42.4" font-family="Times-12" font-weight="bold" font-size="14.00">Legend</text>
<polygon fill="#ffffb3" stroke="transparent" points="117.5,-10 117.5,-30 137.5,-30 137.5,-10 117.5,-10"/>
<text text-anchor="start" x="141.13" y="-15.4" font-family="Times-12" font-size="14.00"> &#160;Declarations</text>
<polygon fill="#8dd3c7" stroke="transparent" points="230.5,-10 230.5,-30 250.5,-30 250.5,-10 230.5,-10"/>
<text text-anchor="start" x="254.23" y="-15.4" font-family="Times-12" font-size="14.00"> &#160;Module</text>
<polygon fill="#80b1d3" stroke="transparent" points="316.5,-10 316.5,-30 336.5,-30 336.5,-10 316.5,-10"/>
<text text-anchor="start" x="340.28" y="-15.4" font-family="Times-12" font-size="14.00"> &#160;Bootstrap</text>
<polygon fill="#fdb462" stroke="transparent" points="413.5,-10 413.5,-30 433.5,-30 433.5,-10 413.5,-10"/>
<text text-anchor="start" x="437.17" y="-15.4" font-family="Times-12" font-size="14.00"> &#160;Providers</text>
<polygon fill="#fb8072" stroke="transparent" points="509.5,-10 509.5,-30 529.5,-30 529.5,-10 509.5,-10"/>
<text text-anchor="start" x="533.23" y="-15.4" font-family="Times-12" font-size="14.00"> &#160;Exports</text>
<g id="clust1" class="cluster">
<title>cluster_OrdersModule</title>
<polygon fill="none" stroke="black" stroke-dasharray="1,5" points="8,-70 8,-195 695,-195 695,-70 8,-70"/>
</g>
<g id="clust6" class="cluster">
<title>cluster_OrdersModule_providers</title>
<polygon fill="none" stroke="black" points="361,-78 361,-130 687,-130 687,-78 361,-78"/>
</g>
<g id="clust3" class="cluster">
<title>cluster_OrdersModule_imports</title>
<polygon fill="none" stroke="black" points="16,-78 16,-130 353,-130 353,-78 16,-78"/>
</g>
<!-- AuthModule -->
<g id="node1" class="node">
<title>AuthModule</title>
<polygon fill="#8dd3c7" stroke="black" points="344.55,-122 341.55,-126 320.55,-126 317.55,-122 257.45,-122 257.45,-86 344.55,-86 344.55,-122"/>
<text text-anchor="middle" x="301" y="-99.8" font-family="Times,serif" font-size="14.00">AuthModule</text>
</g>
<!-- OrdersModule -->
<g id="node4" class="node">
<title>OrdersModule</title>
<polygon fill="#8dd3c7" stroke="black" points="349.64,-187 346.64,-191 325.64,-191 322.64,-187 252.36,-187 252.36,-151 349.64,-151 349.64,-187"/>
<text text-anchor="middle" x="301" y="-164.8" font-family="Times,serif" font-size="14.00">OrdersModule</text>
</g>
<!-- AuthModule&#45;&gt;OrdersModule -->
<g id="edge1" class="edge">
<title>AuthModule&#45;&gt;OrdersModule</title>
<path fill="none" stroke="black" d="M301,-122.11C301,-122.11 301,-140.99 301,-140.99"/>
<polygon fill="black" stroke="black" points="297.5,-140.99 301,-150.99 304.5,-140.99 297.5,-140.99"/>
</g>
<!-- DatabaseModule -->
<g id="node2" class="node">
<title>DatabaseModule</title>
<polygon fill="#8dd3c7" stroke="black" points="239.35,-122 236.35,-126 215.35,-126 212.35,-122 128.65,-122 128.65,-86 239.35,-86 239.35,-122"/>
<text text-anchor="middle" x="184" y="-99.8" font-family="Times,serif" font-size="14.00">DatabaseModule</text>
</g>
<!-- DatabaseModule&#45;&gt;OrdersModule -->
<g id="edge2" class="edge">
<title>DatabaseModule&#45;&gt;OrdersModule</title>
<path fill="none" stroke="black" d="M184,-122.02C184,-139.37 184,-163 184,-163 184,-163 242.06,-163 242.06,-163"/>
<polygon fill="black" stroke="black" points="242.06,-166.5 252.06,-163 242.06,-159.5 242.06,-166.5"/>
</g>
<!-- RmqModule -->
<g id="node3" class="node">
<title>RmqModule</title>
<polygon fill="#8dd3c7" stroke="black" points="110.28,-122 107.28,-126 86.28,-126 83.28,-122 23.72,-122 23.72,-86 110.28,-86 110.28,-122"/>
<text text-anchor="middle" x="67" y="-99.8" font-family="Times,serif" font-size="14.00">RmqModule</text>
</g>
<!-- RmqModule&#45;&gt;OrdersModule -->
<g id="edge3" class="edge">
<title>RmqModule&#45;&gt;OrdersModule</title>
<path fill="none" stroke="black" d="M67,-122.28C67,-143.32 67,-175 67,-175 67,-175 242.23,-175 242.23,-175"/>
<polygon fill="black" stroke="black" points="242.23,-178.5 252.23,-175 242.23,-171.5 242.23,-178.5"/>
</g>
<!-- OrdersRepository -->
<g id="node5" class="node">
<title>OrdersRepository</title>
<ellipse fill="#fdb462" stroke="black" cx="599" cy="-104" rx="79.87" ry="18"/>
<text text-anchor="middle" x="599" y="-99.8" font-family="Times,serif" font-size="14.00">OrdersRepository</text>
</g>
<!-- OrdersRepository&#45;&gt;OrdersModule -->
<g id="edge4" class="edge">
<title>OrdersRepository&#45;&gt;OrdersModule</title>
<path fill="none" stroke="black" d="M599,-122.28C599,-143.32 599,-175 599,-175 599,-175 359.87,-175 359.87,-175"/>
<polygon fill="black" stroke="black" points="359.87,-171.5 349.87,-175 359.87,-178.5 359.87,-171.5"/>
</g>
<!-- OrdersService -->
<g id="node6" class="node">
<title>OrdersService</title>
<ellipse fill="#fdb462" stroke="black" cx="435" cy="-104" rx="66.03" ry="18"/>
<text text-anchor="middle" x="435" y="-99.8" font-family="Times,serif" font-size="14.00">OrdersService</text>
</g>
<!-- OrdersService&#45;&gt;OrdersModule -->
<g id="edge5" class="edge">
<title>OrdersService&#45;&gt;OrdersModule</title>
<path fill="none" stroke="black" d="M435,-122.02C435,-139.37 435,-163 435,-163 435,-163 359.76,-163 359.76,-163"/>
<polygon fill="black" stroke="black" points="359.76,-159.5 349.76,-163 359.76,-166.5 359.76,-159.5"/>
</g>
</g>
</svg>
