<?xml version="1.0" encoding="UTF-8" standalone="no"?>
<!DOCTYPE svg PUBLIC "-//W3C//DTD SVG 1.1//EN"
 "http://www.w3.org/Graphics/SVG/1.1/DTD/svg11.dtd">
<!-- Generated by graphviz version 2.47.0 (20210316.0004)
 -->
<!-- Title: dependencies Pages: 1 -->
<svg width="504pt" height="211pt"
 viewBox="0.00 0.00 504.00 211.00" xmlns="http://www.w3.org/2000/svg" xmlns:xlink="http://www.w3.org/1999/xlink">
<g id="graph0" class="graph" transform="scale(1 1) rotate(0) translate(4 207)">
<title>dependencies</title>
<polygon fill="white" stroke="transparent" points="-4,4 -4,-207 500,-207 500,4 -4,4"/>
<text text-anchor="start" x="227.01" y="-42.4" font-family="Times-12" font-weight="bold" font-size="14.00">Legend</text>
<polygon fill="#ffffb3" stroke="transparent" points="14,-10 14,-30 34,-30 34,-10 14,-10"/>
<text text-anchor="start" x="37.63" y="-15.4" font-family="Times-12" font-size="14.00"> &#160;Declarations</text>
<polygon fill="#8dd3c7" stroke="transparent" points="127,-10 127,-30 147,-30 147,-10 127,-10"/>
<text text-anchor="start" x="150.73" y="-15.4" font-family="Times-12" font-size="14.00"> &#160;Module</text>
<polygon fill="#80b1d3" stroke="transparent" points="213,-10 213,-30 233,-30 233,-10 213,-10"/>
<text text-anchor="start" x="236.78" y="-15.4" font-family="Times-12" font-size="14.00"> &#160;Bootstrap</text>
<polygon fill="#fdb462" stroke="transparent" points="310,-10 310,-30 330,-30 330,-10 310,-10"/>
<text text-anchor="start" x="333.67" y="-15.4" font-family="Times-12" font-size="14.00"> &#160;Providers</text>
<polygon fill="#fb8072" stroke="transparent" points="406,-10 406,-30 426,-30 426,-10 406,-10"/>
<text text-anchor="start" x="429.73" y="-15.4" font-family="Times-12" font-size="14.00"> &#160;Exports</text>
<g id="clust1" class="cluster">
<title>cluster_BillingModule</title>
<polygon fill="none" stroke="black" stroke-dasharray="1,5" points="57,-70 57,-195 439,-195 439,-70 57,-70"/>
</g>
<g id="clust6" class="cluster">
<title>cluster_BillingModule_providers</title>
<polygon fill="none" stroke="black" points="281,-78 281,-130 431,-130 431,-78 281,-78"/>
</g>
<g id="clust3" class="cluster">
<title>cluster_BillingModule_imports</title>
<polygon fill="none" stroke="black" points="65,-78 65,-130 273,-130 273,-78 65,-78"/>
</g>
<!-- AuthModule -->
<g id="node1" class="node">
<title>AuthModule</title>
<polygon fill="#8dd3c7" stroke="black" points="264.55,-122 261.55,-126 240.55,-126 237.55,-122 177.45,-122 177.45,-86 264.55,-86 264.55,-122"/>
<text text-anchor="middle" x="221" y="-99.8" font-family="Times,serif" font-size="14.00">AuthModule</text>
</g>
<!-- BillingModule -->
<g id="node3" class="node">
<title>BillingModule</title>
<polygon fill="#8dd3c7" stroke="black" points="270.45,-187 267.45,-191 246.45,-191 243.45,-187 171.55,-187 171.55,-151 270.45,-151 270.45,-187"/>
<text text-anchor="middle" x="221" y="-164.8" font-family="Times,serif" font-size="14.00">BillingModule</text>
</g>
<!-- AuthModule&#45;&gt;BillingModule -->
<g id="edge1" class="edge">
<title>AuthModule&#45;&gt;BillingModule</title>
<path fill="none" stroke="black" d="M221,-122.11C221,-122.11 221,-140.99 221,-140.99"/>
<polygon fill="black" stroke="black" points="217.5,-140.99 221,-150.99 224.5,-140.99 217.5,-140.99"/>
</g>
<!-- RmqModule -->
<g id="node2" class="node">
<title>RmqModule</title>
<polygon fill="#8dd3c7" stroke="black" points="159.28,-122 156.28,-126 135.28,-126 132.28,-122 72.72,-122 72.72,-86 159.28,-86 159.28,-122"/>
<text text-anchor="middle" x="116" y="-99.8" font-family="Times,serif" font-size="14.00">RmqModule</text>
</g>
<!-- RmqModule&#45;&gt;BillingModule -->
<g id="edge2" class="edge">
<title>RmqModule&#45;&gt;BillingModule</title>
<path fill="none" stroke="black" d="M116,-122.11C116,-141.34 116,-169 116,-169 116,-169 161.57,-169 161.57,-169"/>
<polygon fill="black" stroke="black" points="161.57,-172.5 171.57,-169 161.57,-165.5 161.57,-172.5"/>
</g>
<!-- BillingService -->
<g id="node4" class="node">
<title>BillingService</title>
<ellipse fill="#fdb462" stroke="black" cx="356" cy="-104" rx="66.65" ry="18"/>
<text text-anchor="middle" x="356" y="-99.8" font-family="Times,serif" font-size="14.00">BillingService</text>
</g>
<!-- BillingService&#45;&gt;BillingModule -->
<g id="edge3" class="edge">
<title>BillingService&#45;&gt;BillingModule</title>
<path fill="none" stroke="black" d="M356,-122.11C356,-141.34 356,-169 356,-169 356,-169 280.5,-169 280.5,-169"/>
<polygon fill="black" stroke="black" points="280.5,-165.5 270.5,-169 280.5,-172.5 280.5,-165.5"/>
</g>
</g>
</svg>
