<?xml version="1.0" encoding="UTF-8" standalone="no"?>
<!DOCTYPE svg PUBLIC "-//W3C//DTD SVG 1.1//EN"
 "http://www.w3.org/Graphics/SVG/1.1/DTD/svg11.dtd">
<!-- Generated by graphviz version 2.47.0 (20210316.0004)
 -->
<!-- Title: dependencies Pages: 1 -->
<svg width="1596pt" height="366pt"
 viewBox="0.00 0.00 1596.00 366.00" xmlns="http://www.w3.org/2000/svg" xmlns:xlink="http://www.w3.org/1999/xlink">
<g id="graph0" class="graph" transform="scale(1 1) rotate(0) translate(4 362)">
<title>dependencies</title>
<polygon fill="white" stroke="transparent" points="-4,4 -4,-362 1592,-362 1592,4 -4,4"/>
<text text-anchor="start" x="773.01" y="-42.4" font-family="Times-12" font-weight="bold" font-size="14.00">Legend</text>
<polygon fill="#ffffb3" stroke="transparent" points="560,-10 560,-30 580,-30 580,-10 560,-10"/>
<text text-anchor="start" x="583.63" y="-15.4" font-family="Times-12" font-size="14.00"> &#160;Declarations</text>
<polygon fill="#8dd3c7" stroke="transparent" points="673,-10 673,-30 693,-30 693,-10 673,-10"/>
<text text-anchor="start" x="696.73" y="-15.4" font-family="Times-12" font-size="14.00"> &#160;Module</text>
<polygon fill="#80b1d3" stroke="transparent" points="759,-10 759,-30 779,-30 779,-10 759,-10"/>
<text text-anchor="start" x="782.78" y="-15.4" font-family="Times-12" font-size="14.00"> &#160;Bootstrap</text>
<polygon fill="#fdb462" stroke="transparent" points="856,-10 856,-30 876,-30 876,-10 856,-10"/>
<text text-anchor="start" x="879.67" y="-15.4" font-family="Times-12" font-size="14.00"> &#160;Providers</text>
<polygon fill="#fb8072" stroke="transparent" points="952,-10 952,-30 972,-30 972,-10 952,-10"/>
<text text-anchor="start" x="975.73" y="-15.4" font-family="Times-12" font-size="14.00"> &#160;Exports</text>
<g id="clust1" class="cluster">
<title>cluster_AuthModule</title>
<polygon fill="none" stroke="black" stroke-dasharray="1,5" points="358,-146 358,-350 1136,-350 1136,-146 358,-146"/>
</g>
<g id="clust3" class="cluster">
<title>cluster_AuthModule_imports</title>
<polygon fill="none" stroke="black" points="788,-154 788,-206 1128,-206 1128,-154 788,-154"/>
</g>
<g id="clust4" class="cluster">
<title>cluster_AuthModule_exports</title>
<polygon fill="none" stroke="black" points="798,-290 798,-342 904,-342 904,-290 798,-290"/>
</g>
<g id="clust6" class="cluster">
<title>cluster_AuthModule_providers</title>
<polygon fill="none" stroke="black" points="366,-154 366,-206 780,-206 780,-154 366,-154"/>
</g>
<g id="clust7" class="cluster">
<title>cluster_BillingModule</title>
<polygon fill="none" stroke="black" stroke-dasharray="1,5" points="1414,-214 1414,-342 1580,-342 1580,-214 1414,-214"/>
</g>
<g id="clust12" class="cluster">
<title>cluster_BillingModule_providers</title>
<polygon fill="none" stroke="black" points="1422,-222 1422,-274 1572,-274 1572,-222 1422,-222"/>
</g>
<g id="clust19" class="cluster">
<title>cluster_OrdersModule</title>
<polygon fill="none" stroke="black" stroke-dasharray="1,5" points="8,-214 8,-342 350,-342 350,-214 8,-214"/>
</g>
<g id="clust24" class="cluster">
<title>cluster_OrdersModule_providers</title>
<polygon fill="none" stroke="black" points="16,-222 16,-274 342,-274 342,-222 16,-222"/>
</g>
<g id="clust25" class="cluster">
<title>cluster_RmqModule</title>
<polygon fill="none" stroke="black" stroke-dasharray="1,5" points="1144,-214 1144,-282 1406,-282 1406,-214 1144,-214"/>
</g>
<g id="clust28" class="cluster">
<title>cluster_RmqModule_exports</title>
<polygon fill="none" stroke="black" points="1294,-222 1294,-274 1398,-274 1398,-222 1294,-222"/>
</g>
<g id="clust30" class="cluster">
<title>cluster_RmqModule_providers</title>
<polygon fill="none" stroke="black" points="1152,-222 1152,-274 1286,-274 1286,-222 1152,-222"/>
</g>
<g id="clust31" class="cluster">
<title>cluster_UsersModule</title>
<polygon fill="none" stroke="black" stroke-dasharray="1,5" points="737,-70 737,-138 1179,-138 1179,-70 737,-70"/>
</g>
<g id="clust34" class="cluster">
<title>cluster_UsersModule_exports</title>
<polygon fill="none" stroke="black" points="1061,-78 1061,-130 1171,-130 1171,-78 1061,-78"/>
</g>
<g id="clust36" class="cluster">
<title>cluster_UsersModule_providers</title>
<polygon fill="none" stroke="black" points="745,-78 745,-130 1053,-130 1053,-78 745,-78"/>
</g>
<!-- DatabaseModule -->
<g id="node1" class="node">
<title>DatabaseModule</title>
<polygon fill="#8dd3c7" stroke="black" points="906.35,-198 903.35,-202 882.35,-202 879.35,-198 795.65,-198 795.65,-162 906.35,-162 906.35,-198"/>
<text text-anchor="middle" x="851" y="-175.8" font-family="Times,serif" font-size="14.00">DatabaseModule</text>
</g>
<!-- AuthModule -->
<g id="node4" class="node">
<title>AuthModule</title>
<polygon fill="#8dd3c7" stroke="black" points="894.55,-266 891.55,-270 870.55,-270 867.55,-266 807.45,-266 807.45,-230 894.55,-230 894.55,-266"/>
<text text-anchor="middle" x="851" y="-243.8" font-family="Times,serif" font-size="14.00">AuthModule</text>
</g>
<!-- DatabaseModule&#45;&gt;AuthModule -->
<g id="edge1" class="edge">
<title>DatabaseModule&#45;&gt;AuthModule</title>
<path fill="none" stroke="black" d="M851,-198.22C851,-198.22 851,-219.73 851,-219.73"/>
<polygon fill="black" stroke="black" points="847.5,-219.73 851,-229.73 854.5,-219.73 847.5,-219.73"/>
</g>
<!-- OrdersModule -->
<g id="node11" class="node">
<title>OrdersModule</title>
<polygon fill="#8dd3c7" stroke="black" points="138.64,-334 135.64,-338 114.64,-338 111.64,-334 41.36,-334 41.36,-298 138.64,-298 138.64,-334"/>
<text text-anchor="middle" x="90" y="-311.8" font-family="Times,serif" font-size="14.00">OrdersModule</text>
</g>
<!-- DatabaseModule&#45;&gt;OrdersModule -->
<g id="edge13" class="edge">
<title>DatabaseModule&#45;&gt;OrdersModule</title>
<path fill="none" stroke="black" d="M800.72,-198.07C800.72,-236.94 800.72,-325 800.72,-325 800.72,-325 148.85,-325 148.85,-325"/>
<polygon fill="black" stroke="black" points="148.85,-321.5 138.85,-325 148.85,-328.5 148.85,-321.5"/>
</g>
<!-- RmqModule -->
<g id="node2" class="node">
<title>RmqModule</title>
<polygon fill="#8dd3c7" stroke="black" points="1120.28,-198 1117.28,-202 1096.28,-202 1093.28,-198 1033.72,-198 1033.72,-162 1120.28,-162 1120.28,-198"/>
<text text-anchor="middle" x="1077" y="-175.8" font-family="Times,serif" font-size="14.00">RmqModule</text>
</g>
<!-- RmqModule&#45;&gt;AuthModule -->
<g id="edge2" class="edge">
<title>RmqModule&#45;&gt;AuthModule</title>
<path fill="none" stroke="black" d="M1062.54,-198.29C1062.54,-220.21 1062.54,-254 1062.54,-254 1062.54,-254 904.57,-254 904.57,-254"/>
<polygon fill="black" stroke="black" points="904.57,-250.5 894.57,-254 904.57,-257.5 904.57,-250.5"/>
</g>
<!-- RmqModule&#45;&gt;AuthModule -->
<g id="edge7" class="edge">
<title>RmqModule&#45;&gt;AuthModule</title>
<path fill="none" stroke="black" d="M1048.07,-198.22C1048.07,-218.37 1048.07,-248 1048.07,-248 1048.07,-248 904.74,-248 904.74,-248"/>
<polygon fill="black" stroke="black" points="904.74,-244.5 894.74,-248 904.74,-251.5 904.74,-244.5"/>
</g>
<!-- BillingModule -->
<g id="node9" class="node">
<title>BillingModule</title>
<polygon fill="#8dd3c7" stroke="black" points="1546.45,-334 1543.45,-338 1522.45,-338 1519.45,-334 1447.55,-334 1447.55,-298 1546.45,-298 1546.45,-334"/>
<text text-anchor="middle" x="1497" y="-311.8" font-family="Times,serif" font-size="14.00">BillingModule</text>
</g>
<!-- RmqModule&#45;&gt;BillingModule -->
<g id="edge10" class="edge">
<title>RmqModule&#45;&gt;BillingModule</title>
<path fill="none" stroke="black" d="M1091.46,-198.08C1091.46,-233.8 1091.46,-310 1091.46,-310 1091.46,-310 1437.68,-310 1437.68,-310"/>
<polygon fill="black" stroke="black" points="1437.68,-313.5 1447.68,-310 1437.68,-306.5 1437.68,-313.5"/>
</g>
<!-- RmqModule&#45;&gt;OrdersModule -->
<g id="edge14" class="edge">
<title>RmqModule&#45;&gt;OrdersModule</title>
<path fill="none" stroke="black" d="M1077,-198.24C1077,-227.57 1077,-282 1077,-282 1077,-282 106.27,-282 106.27,-282 106.27,-282 106.27,-287.81 106.27,-287.81"/>
<polygon fill="black" stroke="black" points="102.77,-287.81 106.27,-297.81 109.77,-287.81 102.77,-287.81"/>
</g>
<!-- RmqService  -->
<g id="node14" class="node">
<title>RmqService </title>
<polygon fill="#fb8072" stroke="black" points="1390.21,-266 1301.79,-266 1301.79,-230 1390.21,-230 1390.21,-266"/>
<text text-anchor="middle" x="1346" y="-243.8" font-family="Times,serif" font-size="14.00">RmqService </text>
</g>
<!-- RmqModule&#45;&gt;RmqService  -->
<g id="edge17" class="edge">
<title>RmqModule&#45;&gt;RmqService </title>
<path fill="none" stroke="black" stroke-dasharray="5,2" d="M1120.52,-180C1196.65,-180 1346,-180 1346,-180 1346,-180 1346,-219.78 1346,-219.78"/>
<polygon fill="black" stroke="black" points="1342.5,-219.78 1346,-229.78 1349.5,-219.78 1342.5,-219.78"/>
</g>
<!-- UsersModule -->
<g id="node3" class="node">
<title>UsersModule</title>
<polygon fill="#8dd3c7" stroke="black" points="1015.92,-198 1012.92,-202 991.92,-202 988.92,-198 924.08,-198 924.08,-162 1015.92,-162 1015.92,-198"/>
<text text-anchor="middle" x="970" y="-175.8" font-family="Times,serif" font-size="14.00">UsersModule</text>
</g>
<!-- UsersModule&#45;&gt;AuthModule -->
<g id="edge3" class="edge">
<title>UsersModule&#45;&gt;AuthModule</title>
<path fill="none" stroke="black" d="M970,-198.27C970,-216.56 970,-242 970,-242 970,-242 904.64,-242 904.64,-242"/>
<polygon fill="black" stroke="black" points="904.64,-238.5 894.64,-242 904.64,-245.5 904.64,-238.5"/>
</g>
<!-- UsersService  -->
<g id="node16" class="node">
<title>UsersService </title>
<polygon fill="#fb8072" stroke="black" points="1162.85,-122 1069.15,-122 1069.15,-86 1162.85,-86 1162.85,-122"/>
<text text-anchor="middle" x="1116" y="-99.8" font-family="Times,serif" font-size="14.00">UsersService </text>
</g>
<!-- UsersModule&#45;&gt;UsersService  -->
<g id="edge19" class="edge">
<title>UsersModule&#45;&gt;UsersService </title>
<path fill="none" stroke="black" stroke-dasharray="5,2" d="M992.86,-161.97C992.86,-155.15 992.86,-149 992.86,-149 992.86,-149 1094.86,-149 1094.86,-149 1094.86,-149 1094.86,-132.04 1094.86,-132.04"/>
<polygon fill="black" stroke="black" points="1098.36,-132.04 1094.86,-122.04 1091.36,-132.04 1098.36,-132.04"/>
</g>
<!-- RmqModule  -->
<g id="node8" class="node">
<title>RmqModule </title>
<polygon fill="#fb8072" stroke="black" points="896.28,-334 805.72,-334 805.72,-298 896.28,-298 896.28,-334"/>
<text text-anchor="middle" x="851" y="-311.8" font-family="Times,serif" font-size="14.00">RmqModule </text>
</g>
<!-- AuthModule&#45;&gt;RmqModule  -->
<g id="edge8" class="edge">
<title>AuthModule&#45;&gt;RmqModule </title>
<path fill="none" stroke="black" stroke-dasharray="5,2" d="M851,-266.22C851,-266.22 851,-287.73 851,-287.73"/>
<polygon fill="black" stroke="black" points="847.5,-287.73 851,-297.73 854.5,-287.73 847.5,-287.73"/>
</g>
<!-- AuthModule&#45;&gt;BillingModule -->
<g id="edge9" class="edge">
<title>AuthModule&#45;&gt;BillingModule</title>
<path fill="none" stroke="black" d="M894.64,-260C906.12,-260 915.36,-260 915.36,-260 915.36,-260 915.36,-322 915.36,-322 915.36,-322 1437.41,-322 1437.41,-322"/>
<polygon fill="black" stroke="black" points="1437.41,-325.5 1447.41,-322 1437.41,-318.5 1437.41,-325.5"/>
</g>
<!-- AuthModule&#45;&gt;OrdersModule -->
<g id="edge12" class="edge">
<title>AuthModule&#45;&gt;OrdersModule</title>
<path fill="none" stroke="black" d="M807.39,-259C794.59,-259 783.94,-259 783.94,-259 783.94,-259 783.94,-316 783.94,-316 783.94,-316 148.8,-316 148.8,-316"/>
<polygon fill="black" stroke="black" points="148.8,-312.5 138.8,-316 148.8,-319.5 148.8,-312.5"/>
</g>
<!-- AuthService -->
<g id="node5" class="node">
<title>AuthService</title>
<ellipse fill="#fdb462" stroke="black" cx="713" cy="-180" rx="59.11" ry="18"/>
<text text-anchor="middle" x="713" y="-175.8" font-family="Times,serif" font-size="14.00">AuthService</text>
</g>
<!-- AuthService&#45;&gt;AuthModule -->
<g id="edge4" class="edge">
<title>AuthService&#45;&gt;AuthModule</title>
<path fill="none" stroke="black" d="M713,-198.03C713,-215.06 713,-238 713,-238 713,-238 797.34,-238 797.34,-238"/>
<polygon fill="black" stroke="black" points="797.34,-241.5 807.34,-238 797.34,-234.5 797.34,-241.5"/>
</g>
<!-- JwtStrategy -->
<g id="node6" class="node">
<title>JwtStrategy</title>
<ellipse fill="#fdb462" stroke="black" cx="579" cy="-180" rx="56.76" ry="18"/>
<text text-anchor="middle" x="579" y="-175.8" font-family="Times,serif" font-size="14.00">JwtStrategy</text>
</g>
<!-- JwtStrategy&#45;&gt;AuthModule -->
<g id="edge5" class="edge">
<title>JwtStrategy&#45;&gt;AuthModule</title>
<path fill="none" stroke="black" d="M579,-198.11C579,-217.34 579,-245 579,-245 579,-245 797.3,-245 797.3,-245"/>
<polygon fill="black" stroke="black" points="797.3,-248.5 807.3,-245 797.3,-241.5 797.3,-248.5"/>
</g>
<!-- LocalStrategy -->
<g id="node7" class="node">
<title>LocalStrategy</title>
<ellipse fill="#fdb462" stroke="black" cx="439" cy="-180" rx="65.41" ry="18"/>
<text text-anchor="middle" x="439" y="-175.8" font-family="Times,serif" font-size="14.00">LocalStrategy</text>
</g>
<!-- LocalStrategy&#45;&gt;AuthModule -->
<g id="edge6" class="edge">
<title>LocalStrategy&#45;&gt;AuthModule</title>
<path fill="none" stroke="black" d="M439,-198.17C439,-219.5 439,-252 439,-252 439,-252 797.3,-252 797.3,-252"/>
<polygon fill="black" stroke="black" points="797.3,-255.5 807.3,-252 797.3,-248.5 797.3,-255.5"/>
</g>
<!-- BillingService -->
<g id="node10" class="node">
<title>BillingService</title>
<ellipse fill="#fdb462" stroke="black" cx="1497" cy="-248" rx="66.65" ry="18"/>
<text text-anchor="middle" x="1497" y="-243.8" font-family="Times,serif" font-size="14.00">BillingService</text>
</g>
<!-- BillingService&#45;&gt;BillingModule -->
<g id="edge11" class="edge">
<title>BillingService&#45;&gt;BillingModule</title>
<path fill="none" stroke="black" d="M1497,-266.22C1497,-266.22 1497,-287.73 1497,-287.73"/>
<polygon fill="black" stroke="black" points="1493.5,-287.73 1497,-297.73 1500.5,-287.73 1493.5,-287.73"/>
</g>
<!-- OrdersRepository -->
<g id="node12" class="node">
<title>OrdersRepository</title>
<ellipse fill="#fdb462" stroke="black" cx="254" cy="-248" rx="79.87" ry="18"/>
<text text-anchor="middle" x="254" y="-243.8" font-family="Times,serif" font-size="14.00">OrdersRepository</text>
</g>
<!-- OrdersRepository&#45;&gt;OrdersModule -->
<g id="edge15" class="edge">
<title>OrdersRepository&#45;&gt;OrdersModule</title>
<path fill="none" stroke="black" d="M254,-266.02C254,-283.37 254,-307 254,-307 254,-307 148.76,-307 148.76,-307"/>
<polygon fill="black" stroke="black" points="148.76,-303.5 138.76,-307 148.76,-310.5 148.76,-303.5"/>
</g>
<!-- OrdersService -->
<g id="node13" class="node">
<title>OrdersService</title>
<ellipse fill="#fdb462" stroke="black" cx="90" cy="-248" rx="66.03" ry="18"/>
<text text-anchor="middle" x="90" y="-243.8" font-family="Times,serif" font-size="14.00">OrdersService</text>
</g>
<!-- OrdersService&#45;&gt;OrdersModule -->
<g id="edge16" class="edge">
<title>OrdersService&#45;&gt;OrdersModule</title>
<path fill="none" stroke="black" d="M73.73,-265.51C73.73,-265.51 73.73,-287.84 73.73,-287.84"/>
<polygon fill="black" stroke="black" points="70.23,-287.84 73.73,-297.84 77.23,-287.84 70.23,-287.84"/>
</g>
<!-- RmqService -->
<g id="node15" class="node">
<title>RmqService</title>
<ellipse fill="#fdb462" stroke="black" cx="1219" cy="-248" rx="58.55" ry="18"/>
<text text-anchor="middle" x="1219" y="-243.8" font-family="Times,serif" font-size="14.00">RmqService</text>
</g>
<!-- RmqService&#45;&gt;RmqModule -->
<g id="edge18" class="edge">
<title>RmqService&#45;&gt;RmqModule</title>
<path fill="none" stroke="black" d="M1174.96,-236C1143.21,-236 1105.93,-236 1105.93,-236 1105.93,-236 1105.93,-208.03 1105.93,-208.03"/>
<polygon fill="black" stroke="black" points="1109.43,-208.03 1105.93,-198.03 1102.43,-208.03 1109.43,-208.03"/>
</g>
<!-- UsersRepository -->
<g id="node17" class="node">
<title>UsersRepository</title>
<ellipse fill="#fdb462" stroke="black" cx="970" cy="-104" rx="75.3" ry="18"/>
<text text-anchor="middle" x="970" y="-99.8" font-family="Times,serif" font-size="14.00">UsersRepository</text>
</g>
<!-- UsersRepository&#45;&gt;UsersModule -->
<g id="edge20" class="edge">
<title>UsersRepository&#45;&gt;UsersModule</title>
<path fill="none" stroke="black" d="M970,-122.01C970,-122.01 970,-151.85 970,-151.85"/>
<polygon fill="black" stroke="black" points="966.5,-151.85 970,-161.85 973.5,-151.85 966.5,-151.85"/>
</g>
<!-- UsersService -->
<g id="node18" class="node">
<title>UsersService</title>
<ellipse fill="#fdb462" stroke="black" cx="815" cy="-104" rx="61.95" ry="18"/>
<text text-anchor="middle" x="815" y="-99.8" font-family="Times,serif" font-size="14.00">UsersService</text>
</g>
<!-- UsersService&#45;&gt;UsersModule -->
<g id="edge21" class="edge">
<title>UsersService&#45;&gt;UsersModule</title>
<path fill="none" stroke="black" d="M836.28,-121.12C836.28,-128.73 836.28,-136 836.28,-136 836.28,-136 947.14,-136 947.14,-136 947.14,-136 947.14,-151.85 947.14,-151.85"/>
<polygon fill="black" stroke="black" points="943.64,-151.85 947.14,-161.85 950.64,-151.85 943.64,-151.85"/>
</g>
</g>
</svg>
